# xmcd
#
# Track frame offsets: 
#        150
#        16807
#        32403
#        58100
#        83482
#        111628
#        141543
#        175130
#        211306
#
# Disc length: 3444 seconds
#
# Revision: 2
# Processed by: cddbd v1.5.2PL0 Copyright (c) Steve Scherf et al.
# Submitted via: ExactAudioCopyFreeDBPlugin 1.0
#
DISCID=770d7209
DTITLE=King Mo - Live in Holland
DYEAR=2011
DGENRE=Bluesrock
TTITLE0=Buzzin'
TTITLE1=Every Day I Have The Blues
TTITLE2=Sugar Rush
TTITLE3=Jesus Just Left Chcago
TTITLE4=Down The Line
TTITLE5=I Don't Need No Doctor
TTITLE6=Little Wing
TTITLE7=Who Knows
TTITLE8=All Along The Watchtower
EXTD=
EXTT0=
EXTT1=
EXTT2=
EXTT3=
EXTT4=
EXTT5=
EXTT6=
EXTT7=
EXTT8=
PLAYORDER=
